<svg width="24" height="24" viewBox="0 0 24 24" fill="none" xmlns="http://www.w3.org/2000/svg">
<rect width="24" height="24" fill="white"/>
<path fill-rule="evenodd" clip-rule="evenodd" d="M2.60472 2.18433L3.02304 4.21388L3.03098 4.25302C3.03801 4.2879 3.04845 4.34005 3.06182 4.40788C3.08855 4.54358 3.12694 4.7419 3.17311 4.9901C3.2655 5.48682 3.38873 6.1817 3.51189 6.97308C3.76046 8.57032 3.99999 10.5069 3.99999 12C3.99999 13.4931 3.76046 15.4297 3.51189 17.0269C3.38873 17.8183 3.2655 18.5132 3.17311 19.0099C3.12694 19.2581 3.08855 19.4564 3.06182 19.5921C3.04845 19.6599 3.03801 19.7121 3.03098 19.747L3.02304 19.7861L2.60472 21.8157L22.2361 12L2.60472 2.18433ZM5.4881 6.66553C5.44023 6.35794 5.39237 6.06463 5.34622 5.79114L17.7639 12L5.34622 18.2088C5.39237 17.9354 5.44023 17.6421 5.4881 17.3345C5.69091 16.0313 5.89959 14.4368 5.97272 13H11V11H5.97272C5.89959 9.56324 5.69091 7.96872 5.4881 6.66553Z" fill="black"/>
</svg>
