<svg width="24" height="24" viewBox="0 0 24 24" fill="none" xmlns="http://www.w3.org/2000/svg">
<g clip-path="url(#clip0_17_28)">
<rect width="24" height="24" fill="white"/>
<path fill-rule="evenodd" clip-rule="evenodd" d="M13.9134 16.6194C16.4646 15.5627 17.6761 12.6378 16.6194 10.0866C15.5626 7.53539 12.6378 6.32388 10.0866 7.38063C7.53533 8.43738 6.32382 11.3622 7.38057 13.9134C8.43732 16.4647 11.3622 17.6762 13.9134 16.6194ZM13.148 14.7717C14.6788 14.1376 15.4057 12.3827 14.7716 10.852C14.1376 9.32124 12.3827 8.59434 10.8519 9.22839C9.32119 9.86244 8.59428 11.6173 9.22833 13.1481C9.86238 14.6788 11.6173 15.4057 13.148 14.7717Z" fill="black"/>
<path fill-rule="evenodd" clip-rule="evenodd" d="M2.70895 17.8921C3.32465 17.3415 3.55711 16.4419 3.22312 15.6355C2.88912 14.8292 2.0886 14.3574 1.2639 14.4034C1.11517 13.7428 1.02988 13.0781 1.00489 12.417C0.994346 12.1381 0.994536 11.8599 1.00522 11.5828C1.03114 10.911 1.11878 10.2462 1.26481 9.59657C1.55532 9.61285 1.85392 9.56572 2.14072 9.44692C3.16121 9.02422 3.64582 7.85429 3.22312 6.8338C3.10432 6.547 2.9265 6.30252 2.70957 6.10862C3.06565 5.54602 3.47375 5.01398 3.9305 4.52058C4.11884 4.31712 4.31546 4.12023 4.52012 3.93048C5.00526 3.48069 5.53556 3.07101 6.1079 2.709C6.65849 3.3247 7.55814 3.55717 8.36448 3.22317C9.17082 2.88917 9.64258 2.08865 9.59655 1.26395C10.2572 1.11523 10.9219 1.02993 11.583 1.00494C11.8619 0.994399 12.1401 0.994589 12.4172 1.00528C13.089 1.03119 13.7538 1.11884 14.4034 1.26487C14.3871 1.55537 14.4343 1.85398 14.5531 2.14078C14.9758 3.16127 16.1457 3.64587 17.1662 3.22317C17.453 3.10437 17.6975 2.92656 17.8914 2.70962C18.454 3.06571 18.986 3.4738 19.4794 3.93055C19.6829 4.1189 19.8798 4.31552 20.0695 4.52018C20.5193 5.00531 20.929 5.53561 21.291 6.10795C20.6753 6.65855 20.4428 7.55819 20.7768 8.36453C21.1108 9.17087 21.9113 9.64264 22.736 9.5966C22.8848 10.2573 22.9701 10.922 22.9951 11.583C23.0056 11.8619 23.0054 12.1402 22.9947 12.4172C22.9688 13.0891 22.8812 13.7539 22.7351 14.4035C22.4446 14.3872 22.146 14.4343 21.8592 14.5531C20.8387 14.9758 20.3541 16.1458 20.7768 17.1663C20.8956 17.4531 21.0734 17.6975 21.2904 17.8914C20.9343 18.454 20.5262 18.9861 20.0694 19.4795C19.8811 19.6829 19.6845 19.8798 19.4798 20.0696C18.9947 20.5194 18.4644 20.929 17.892 21.291C17.3414 20.6753 16.4418 20.4429 15.6355 20.7769C14.8291 21.1109 14.3574 21.9114 14.4034 22.7361C13.7427 22.8848 13.078 22.9701 12.417 22.9951C12.1381 23.0056 11.8598 23.0055 11.5828 22.9948C10.9109 22.9689 10.2461 22.8812 9.59652 22.7352C9.6128 22.4447 9.56567 22.1461 9.44687 21.8593C9.02417 20.8388 7.85423 20.3542 6.83374 20.7769C6.54694 20.8957 6.30247 21.0735 6.10857 21.2904C5.54597 20.9343 5.01392 20.5262 4.52052 20.0695C4.31706 19.8812 4.12017 19.6845 3.93042 19.4799C3.48063 18.9947 3.07096 18.4644 2.70895 17.8921ZM3.03017 11.2409C2.98731 11.7423 2.98642 12.25 3.0296 12.759C3.25005 12.859 3.46158 12.9791 3.66125 13.1178L3.68711 13.1359C4.28305 13.557 4.77099 14.1462 5.07088 14.8702C5.37076 15.5941 5.44231 16.3557 5.31869 17.0749L5.31322 17.106C5.27014 17.3453 5.20543 17.5797 5.12031 17.8064C5.44964 18.1968 5.80929 18.5552 6.19417 18.8794C6.43522 18.7889 6.67988 18.7231 6.92526 18.6809C8.43822 18.421 9.9782 19.0589 10.8642 20.3125C11.0079 20.5158 11.1344 20.7353 11.2408 20.9698C11.7423 21.0127 12.25 21.0136 12.7589 20.9704C12.859 20.7499 12.979 20.5384 13.1178 20.3387L13.1359 20.3129C13.557 19.7169 14.1461 19.229 14.8701 18.9291C15.5941 18.6292 16.3557 18.5577 17.0748 18.6813L17.1059 18.6868C17.3452 18.7299 17.5797 18.7946 17.8063 18.8797C18.1967 18.5504 18.5551 18.1907 18.8794 17.8058C18.7888 17.5648 18.723 17.3201 18.6809 17.0747C18.4209 15.5618 19.0588 14.0218 20.3124 13.1358C20.5158 12.9921 20.7353 12.8656 20.9698 12.7592C21.0126 12.2577 21.0135 11.75 20.9703 11.2411C20.7499 11.141 20.5384 11.021 20.3387 10.8822L20.3128 10.8641C19.7169 10.443 19.229 9.85389 18.9291 9.1299C18.6292 8.40591 18.5576 7.64431 18.6813 6.92515L18.6867 6.89405C18.7298 6.65476 18.7945 6.42031 18.8796 6.19367C18.5503 5.80327 18.1907 5.44488 17.8058 5.12061C17.5647 5.2112 17.3201 5.27697 17.0747 5.31912C15.5617 5.57906 14.0217 4.94118 13.1357 3.68755C12.992 3.48423 12.8655 3.26473 12.7591 3.03022C12.2577 2.98736 11.75 2.98647 11.241 3.02966C11.141 3.2501 11.0209 3.46164 10.8822 3.6613L10.8641 3.68717C10.443 4.28311 9.85383 4.77104 9.12985 5.07093C8.40586 5.37081 7.64426 5.44236 6.9251 5.31874L6.894 5.31327C6.6547 5.27019 6.42026 5.20548 6.19361 5.12036C5.80321 5.44969 5.44482 5.80934 5.12055 6.19423C5.21114 6.43527 5.27691 6.67994 5.31907 6.92531C5.57901 8.43827 4.94112 9.97826 3.6875 10.8643C3.48418 11.008 3.26467 11.1345 3.03017 11.2409Z" fill="black"/>
</g>
<defs>
<clipPath id="clip0_17_28">
<rect width="24" height="24" fill="white"/>
</clipPath>
</defs>
</svg>
